<?xml version="1.0" standalone="no"?>
<!DOCTYPE svg PUBLIC "-//W3C//DTD SVG 20010904//EN"
 "http://www.w3.org/TR/2001/REC-SVG-20010904/DTD/svg10.dtd">
<svg version="1.0" xmlns="http://www.w3.org/2000/svg"
 width="661.000000pt" height="661.000000pt" viewBox="0 0 661.000000 661.000000"
 preserveAspectRatio="xMidYMid meet">
<metadata>
Created by potrace 1.14, written by Peter Selinger 2001-2017
</metadata>
<g transform="translate(0.000000,661.000000) scale(0.100000,-0.100000)"
fill="#000000" stroke="none">
<path d="M2282 5357 l-562 -562 0 248 0 247 -260 0 -260 0 0 -507 0 -507 -367
-368 -368 -368 180 -180 180 -180 845 842 c464 464 835 832 824 818 -12 -14
-187 -223 -390 -465 -202 -242 -425 -507 -494 -590 -69 -82 -135 -161 -147
-175 -12 -14 -78 -92 -147 -175 l-126 -150 0 -912 0 -913 455 0 454 0 108
-108 c147 -148 283 -238 463 -305 239 -89 235 -89 1530 -85 1231 5 1147 0
1354 69 385 128 695 445 822 839 83 258 77 576 -16 831 -141 386 -450 681
-844 804 l-99 31 -13 64 c-46 223 -166 450 -332 622 -115 120 -221 197 -367
269 -136 66 -255 103 -383 120 -48 6 -111 14 -140 17 l-52 7 -643 642 -643
642 -562 -562z m2018 -1113 c366 -69 653 -339 740 -695 12 -49 23 -138 27
-212 7 -146 -6 -132 128 -143 295 -24 556 -173 715 -408 61 -91 91 -156 127
-275 24 -77 26 -103 27 -241 0 -172 -11 -237 -65 -366 -122 -293 -402 -515
-709 -564 -90 -14 -2235 -14 -2316 1 -375 66 -682 362 -758 731 -25 121 -21
294 9 414 98 393 422 667 835 706 63 6 119 15 124 19 5 4 12 68 17 141 16 252
91 439 243 606 60 65 187 162 266 202 175 89 399 121 590 84z"/>
<path d="M3075 2884 c-108 -21 -137 -30 -185 -54 -189 -96 -238 -329 -99 -475
63 -66 160 -113 337 -159 164 -44 204 -64 227 -112 15 -32 15 -40 3 -72 -21
-57 -67 -82 -150 -82 -105 0 -156 36 -189 132 l-18 53 -58 -2 c-32 -1 -106 -4
-165 -8 -104 -7 -108 -8 -108 -30 0 -50 42 -155 85 -214 85 -116 199 -156 440
-156 163 0 225 13 318 63 63 34 132 109 165 180 22 47 26 71 27 142 0 107 -26
169 -97 235 -67 63 -152 100 -352 151 -183 46 -216 64 -216 116 0 62 90 102
177 79 57 -15 89 -44 109 -97 l17 -46 86 7 c230 16 241 17 241 30 0 7 -9 43
-21 81 -17 56 -31 77 -78 124 -62 63 -125 92 -233 110 -60 9 -221 12 -263 4z"/>
<path d="M3870 2295 l0 -575 160 0 160 0 0 108 0 108 60 59 c33 32 61 57 64
54 2 -2 40 -77 85 -166 l81 -163 181 0 181 0 -20 33 c-56 92 -258 437 -276
470 l-21 39 150 143 150 144 -196 1 -197 0 -118 -137 -119 -137 -3 297 -2 297
-160 0 -160 0 0 -575z"/>
<path d="M4855 2530 c4 -12 81 -197 171 -413 174 -414 174 -411 133 -469 -40
-55 -114 -71 -218 -47 -24 5 -45 8 -47 7 -1 -2 2 -49 9 -106 l11 -102 35 -7
c20 -4 92 -7 161 -7 141 -1 201 14 261 63 63 52 67 62 383 913 36 98 66 180
66 183 0 3 -70 5 -155 5 l-154 0 -14 -47 c-8 -27 -43 -148 -78 -271 -34 -122
-66 -219 -70 -215 -3 5 -23 62 -43 128 -21 66 -57 184 -82 263 l-45 142 -165
0 c-162 0 -165 0 -159 -20z"/>
</g>
</svg>
